Love for All and Sharing is the first step to solving all the problems of humanity.

Websites I want to share.

 
http://www.shareintl.org/

 
http://www.lightmiddleway.com


Thank you very much

No credit for me...credit to EVERYONE for sharing

 
http://thepiratebay.org/user/raymondhome/

STORY
Seven years after the apparent death of Chen Zhen, who was shot after discovering who was responsible for his teacher\'s death (Huo Yuanjia) in Japanese-occupied Shanghai. A mysterious stranger arrives from overseas and befriends a local mafia boss. That man is a disguised Chen Zhen, who intends to infiltrate the mob when they form an alliance with the Japanese. Disguising himself as a caped fighter by night, Chen intends to take out everyone involved as well as get his hands on an assassination list prepared by the Japanese.

Language:Mandarin
Source:DVD
Subtitles:Engleza
Duration : 1h 42mn
Overall bit rate : 1 176 Kbps

Video #0
ID : 0
Format : MPEG-4 Visual
Format profile : AdvancedSimple@L5
Format settings, BVOP : Yes
Format settings, QPel : No
Format settings, GMC : No warppoints
Format settings, Matrix : Default (H.263)
Muxing mode : Packed bitstream
Codec ID : XVID
Codec ID/Hint : XviD
Duration : 1h 42mn
Bit rate : 910 Kbps
Width : 720 pixels
Height : 304 pixels
Display aspect ratio : 2.35:1
Frame rate : 25.000 fps
Resolution : 24 bits
Colorimetry : 4:2:0
Scan type : Progressive
Bits/(Pixel*Frame) : 0.166
Stream size : 669 MiB (77%)
Writing library : XviD 1.2.1 (UTC 2008-12-04)

Audio #1
ID : 1
Format : AC-3
Format/Info : Audio Coding 3
Codec ID : 2000
Duration : 1h 42mn
Bit rate mode : Constant
Bit rate : 256 Kbps
Channel(s) : 6 channels
Channel positions : Front: L C R, Surround: L R, LFE
Sampling rate : 48.0 KHz
Stream size : 188 MiB (22%)
Alignment : Split accross interleaves
Interleave, duration : 40 ms (1.00 video frame)
Interleave, preload duration : 500 ms

credit Feel-Free & pitic & to all the people who made it possible for us to share this...especially EVERYONE involve in the production of the movie...IF YOU LIKE IT...BUY IT :)

*****help what we can with others in need...the world is ONE big family*****

SCREENSHOTS
 
http://www.starshare.ro/bitbucket/Legend.of.the.FistThe.Return.of.Chen.Zhen.2010.DvDRip.XviD.Feel-Free.avi_snapshot_00.52.07_%5B2010.10.05_19.18.57%5D.jpg
 
http://www.starshare.ro/bitbucket/Legend.of.the.FistThe.Return.of.Chen.Zhen.2010.DvDRip.XviD.Feel-Free.avi_snapshot_01.00.23_%5B2010.10.05_19.21.02%5D.jpg
 
http://www.starshare.ro/bitbucket/Legend.of.the.FistThe.Return.of.Chen.Zhen.2010.DvDRip.XviD.Feel-Free.avi_snapshot_01.35.43_%5B2010.10.05_19.22.00%5D.jpg

DON'T THANK US...HELP SOMEONE IN NEED :)

MAY YOU & YOUR LOVED ONES ALWAYS BE BLESSED WITH LIGHT, LOVE, JOY, PEACE, GOOD HEALTH & ABUNDANCE :)
 
http://www.imdb.com/title/tt1456661/